<?xml version="1.0" encoding="UTF-8" standalone="no" ?>
<!DOCTYPE svg PUBLIC "-//W3C//DTD SVG 1.1//EN" "http://www.w3.org/Graphics/SVG/1.1/DTD/svg11.dtd">
<svg xmlns="http://www.w3.org/2000/svg" xmlns:xlink="http://www.w3.org/1999/xlink" version="1.1" width="1080" height="1080" viewBox="0 0 1080 1080" xml:space="preserve">
<desc>Created with Fabric.js 5.2.4</desc>
<defs>
</defs>
<g transform="matrix(1 0 0 1 540 540)" id="28523476-6d49-4349-bfaa-cb533fbd7522"  >
<rect style="stroke: none; stroke-width: 1; stroke-dasharray: none; stroke-linecap: butt; stroke-dashoffset: 0; stroke-linejoin: miter; stroke-miterlimit: 4; fill: rgb(255,255,255); fill-rule: nonzero; opacity: 1; visibility: hidden;" vector-effect="non-scaling-stroke"  x="-540" y="-540" rx="0" ry="0" width="1080" height="1080" />
</g>
<g transform="matrix(1 0 0 1 540 540)" id="49bd2f0c-2258-4113-8d31-41ce71ee0b9a"  >
</g>
<g transform="matrix(1 0 0 1 540 540)"  >
<g style="" vector-effect="non-scaling-stroke"   >
		<g transform="matrix(1 0 0 1 -19.54 -42.58)"  >
<path style="stroke: none; stroke-width: 1; stroke-dasharray: none; stroke-linecap: butt; stroke-dashoffset: 0; stroke-linejoin: miter; stroke-miterlimit: 4; fill: rgb(255,255,255); fill-rule: nonzero; opacity: 1;" vector-effect="non-scaling-stroke"  transform=" translate(-480.89, -420.92)" d="M 326.14325 610.362549 C 317.059479 614.043396 308.307648 614.134888 299.424591 611.077515 C 292.20752 608.593506 289.618317 603.683838 290.237518 596.076477 C 291.895142 575.712769 304.232147 561.161011 316.763184 546.881165 C 333.074524 528.293335 352.218719 512.701233 371.373413 497.166779 C 376.740936 492.813751 376.536682 492.195618 372.902985 486.514435 C 362.206299 469.790558 345.424683 464.010468 327.169586 461.457062 C 312.655548 459.426971 297.934631 459.863281 283.299561 459.281219 C 272.182098 458.83905 261.011353 458.242279 250.193283 455.212494 C 237.00177 451.517944 228.177841 440.275116 226.558151 426.635223 C 224.654037 410.600128 228.576019 395.524536 233.340256 380.617279 C 243.647171 348.366882 260.500702 319.551361 280.623627 292.538788 C 295.25293 272.900726 311.959015 255.306976 332.625336 241.932693 C 344.349884 234.345093 357.063385 229.32254 371.374023 228.634628 C 385.476288 227.956757 395.543121 234.342438 403.739258 244.998779 C 412.400513 256.259857 415.513947 269.524628 417.264465 283.131775 C 420.395935 307.473633 415.517212 331.203033 410.775421 354.866394 C 409.012726 363.662872 406.578094 372.335144 404.175415 380.987885 C 403.204315 384.485077 401.680054 389.011658 397.14679 387.854309 C 392.754272 386.732849 393.569977 382.031189 393.963593 378.433197 C 395.504211 364.350159 400.090393 350.82959 401.950867 336.825592 C 404.78299 315.507629 406.928528 294.093994 402.559326 272.718506 C 400.81076 264.164093 397.488068 256.035889 391.547516 249.493729 C 382.262756 239.268677 369.224396 237.383194 353.793335 243.947937 C 335.667572 251.659058 320.690582 263.558624 308.277283 278.844421 C 299.772766 289.316956 290.77774 299.392334 282.319305 309.900665 C 277.947998 315.33136 273.704041 321.01123 270.379791 327.111053 C 259.718262 346.674408 248.231918 365.85498 242.076416 387.585297 C 239.110168 398.056854 236.591202 408.577728 236.469498 419.437225 C 236.268204 437.402832 242.885559 445.072876 259.1008 448.119171 C 270.619324 450.283112 282.281799 450.517792 293.928375 450.549164 C 307.262207 450.585083 320.614105 450.417633 333.774689 452.777618 C 350.748962 455.821472 365.793243 462.70932 377.582458 475.839478 C 380.170868 478.722351 380.985992 482.710907 384.009613 485.244965 C 386.582001 485.053955 388.381836 483.447754 390.160614 482.043701 C 409.508972 466.771149 428.701233 451.311676 446.820679 434.566803 C 450.361908 431.29425 454.261932 428.413391 457.922791 425.266205 C 468.810669 415.906128 479.174438 406.406586 483.724609 391.823334 C 486.179474 383.955627 493.096863 378.606171 499.770325 373.777832 C 502.639648 371.701813 506.004761 370.730865 509.624054 370.637543 C 519.181152 370.391113 522.702148 375.143066 519.525574 384.352478 C 515.642151 395.611115 506.688751 401.815186 496.649445 406.848389 C 493.093018 408.631378 487.404541 407.759644 487.790314 414.28894 C 488.289093 422.731018 492.628387 428.88269 499.284485 430.690277 C 503.646912 431.875031 507.849304 431.341888 512.042908 430.01413 C 524.927612 425.934662 535.074402 417.536987 545.123352 408.998199 C 546.986694 407.414825 547.515686 405.058441 548.338074 402.877838 C 551.94104 393.324982 556.105103 384.101471 563.418579 376.665558 C 566.561829 373.469666 570.176819 371.250122 574.658569 370.684906 C 584.420227 369.453796 586.841736 374.419067 586.968567 383.111328 C 586.996582 385.031738 586.377563 387.252075 584.136902 388.001587 C 581.649475 388.833679 580.609131 386.832062 579.458679 385.195953 C 578.895142 384.394623 578.303833 383.612854 577.795837 382.918884 C 575.381897 382.608948 574.253418 384.284607 573.031128 385.512268 C 561.973755 396.618744 557.313354 420.13504 563.243713 434.517914 C 565.9823 441.159576 569.835632 443.672638 577.112671 443.703552 C 588.720154 443.752838 597.740784 437.930878 606.168518 430.86734 C 613.750244 424.512817 619.616577 416.553223 625.905518 409.020325 C 628.286255 406.168671 628.481934 402.29425 628.81134 398.590118 C 630.009277 385.118805 629.599976 371.621063 629.647156 358.132812 C 629.710754 339.960968 631.2724 321.906891 633.510498 303.892853 C 633.899963 300.758636 633.818787 297.566284 634.201599 294.430878 C 634.969177 288.145477 634.210144 287.314453 627.855957 288.741455 C 621.365479 290.199127 614.894531 291.773895 608.479614 293.532928 C 589.196472 298.820465 570.065552 304.522858 552.254089 313.926636 C 549.500977 315.380157 547.361511 317.217743 545.366516 319.498627 C 542.536133 322.734589 537.950378 323.267303 535.733887 320.844604 C 533.604797 318.517456 534.58551 314.579651 538.204468 311.878265 C 546.854004 305.421661 556.7146 301.273346 566.819641 297.878662 C 588.121704 290.722351 609.54303 283.907196 631.584839 279.312317 C 635.98468 278.395111 638.005127 275.695465 638.671143 271.4328 C 639.676697 264.997406 641.306091 258.690094 644.208313 252.836273 C 645.670898 249.886063 647.471191 246.402298 651.584045 247.398819 C 655.707397 248.397934 656.381042 252.08519 656.308899 255.781769 C 656.214722 260.604523 657.748535 265.931519 651.858215 268.935577 C 650.312378 269.723999 649.884338 271.691895 650.873169 273.360626 C 651.972717 275.216339 653.748657 274.483276 655.376892 274.210815 C 669.162964 271.903473 682.927002 269.446594 696.748657 267.37558 C 705.97583 265.992981 715.306091 265.492371 724.65155 265.85434 C 728.004333 265.984161 731.360535 266.354462 733.994812 268.746368 C 735.425171 270.045166 736.162781 271.763 735.438293 273.707306 C 734.785706 275.458923 733.15271 275.603424 731.651367 275.363373 C 714.561707 272.630646 697.848999 275.565125 681.115723 278.536469 C 671.624023 280.221954 662.099121 281.742432 652.556763 283.110657 C 648.30719 283.719971 646.634216 285.959198 646.294922 290.067627 C 644.515442 311.615326 643.060669 333.19281 640.519287 354.673798 C 640.207397 357.309662 640.299744 359.998077 640.278015 362.662781 C 639.964417 401.146729 638.541382 439.621979 639.307434 478.113708 C 639.466431 486.102142 639.931824 494.084198 640.209351 502.07077 C 640.272888 503.899384 640.244263 505.743896 640.077454 507.564514 C 639.875183 509.771973 639.43335 512.12915 636.8172 512.589905 C 633.929749 513.098328 632.057983 511.356598 631.074646 508.813538 C 629.372314 504.411072 629.183411 499.724426 628.75592 495.086792 C 626.747742 473.301025 628.023254 451.459137 627.598938 429.646606 C 627.551331 427.200378 628.074524 424.639648 626.444153 422.089264 C 623.878052 423.163849 622.358643 425.384888 620.576599 427.237518 C 612.217773 435.927551 603.397888 444.02475 592.252686 449.074677 C 571.261536 458.585876 550.706543 448.464569 547.554749 424.793518 C 547.335205 423.144958 547.211487 421.478973 546.166687 419.9935 C 543.887573 419.319214 542.426514 420.886566 540.927124 422.091003 C 533.476746 428.075684 525.319275 432.899231 516.637085 436.821533 C 504.770111 442.182587 493.527924 440.014771 484.614441 430.907928 C 482.81485 429.069275 481.645996 426.943237 480.731293 424.584259 C 478.676239 419.284241 477.304718 419.008118 473.005096 422.928314 C 465.620392 429.661377 458.097443 436.250732 450.889862 443.168549 C 434.513245 458.886688 416.11377 472.153961 398.705994 486.620728 C 398.57785 486.727203 398.453308 486.842102 398.311737 486.927612 C 390.541107 491.621063 387.950684 497.325989 389.779114 507.196289 C 394.145813 530.76886 386.190186 551.849854 372.574219 570.972229 C 362.436066 585.210388 350.851135 597.979736 335.145081 606.33075 C 332.362762 607.810059 329.403992 608.95752 326.14325 610.362549 M 323.912872 552.400085 C 317.98642 559.580933 311.633636 566.482422 307.209961 574.738708 C 303.55484 581.560486 298.949036 588.101685 299.093109 596.399902 C 299.1633 600.443115 300.717102 603.215149 305.043915 603.564209 C 312.766144 604.187195 320.522797 604.004395 327.376556 599.998047 C 361.852966 579.844604 383.128235 551.769165 380.779877 509.773468 C 380.680817 508.002167 381.248627 505.865387 379.275787 504.811798 C 376.909393 503.547974 375.077332 505.236298 373.476715 506.587372 C 356.447205 520.962158 339.745941 535.698486 323.912872 552.400085 M 493.42511 394.86499 C 492.8237 396.578247 490.87674 397.985321 492.194733 400.515961 C 500.029144 397.677521 506.181976 392.943298 510.926147 386.355164 C 512.176758 384.61853 513.742065 382.336182 512.116882 380.485626 C 510.16983 378.268555 507.77066 380.196014 505.878204 381.29834 C 500.575409 384.387085 497.19455 389.347351 493.42511 394.86499 z" stroke-linecap="round" />
</g>
		<g transform="matrix(1 0 0 1 -4.48 110.06)"  >
<path style="stroke: none; stroke-width: 1; stroke-dasharray: none; stroke-linecap: butt; stroke-dashoffset: 0; stroke-linejoin: miter; stroke-miterlimit: 4; fill: rgb(255,255,255); fill-rule: nonzero; opacity: 1;" vector-effect="non-scaling-stroke"  transform=" translate(-495.95, -573.56)" d="M 352.934509 667.050659 C 383.945496 688.49469 417.475647 702.968628 454.516235 708.611755 C 495.969604 714.927063 536.559753 712.281067 576.569458 698.434753 C 631.387329 679.463684 673.766479 645.040466 705.057251 596.938171 C 726.043701 564.676514 738.447998 529.066895 742.010132 490.411621 C 743.547119 473.732361 744.212219 457.232666 741.981201 440.625427 C 741.311707 435.642059 741.339661 430.661346 743.986084 426.034943 C 745.624756 423.17038 747.759216 421.422974 751.203064 421.734344 C 754.732971 422.053558 755.040039 424.757874 755.599915 427.451111 C 760.09845 449.088135 759.076111 470.888153 756.870728 492.594025 C 755.053894 510.474945 751.54718 528.11145 745.7276 545.226074 C 735.880371 574.185669 721.795837 600.808777 702.911255 624.924316 C 675.673401 659.707153 641.999817 686.444763 601.680054 704.24353 C 571.482239 717.574097 539.955261 726.327637 506.410461 725.348083 C 490.930573 724.895996 475.41684 726.089844 459.956879 724.60376 C 437.532349 722.448303 416.283752 715.744263 395.600403 707.230286 C 353.598846 689.940918 318.506104 663.301025 290.055023 627.953125 C 260.304749 590.990906 243.084702 548.554626 235.965714 501.897278 C 234.363007 491.39325 233.356522 480.757904 233.161316 470.09024 C 233.066788 464.924744 234.116806 464.528076 238.956314 465.629639 C 245.935501 467.218262 248.26297 470.799255 248.61145 478.140137 C 250.258179 512.828796 258.679169 545.856873 275.092224 576.644226 C 277.688477 581.514221 278.587402 586.355774 277.697998 591.9823 C 275.309692 607.091187 282.387421 620.043518 296.273773 623.741089 C 305.478821 626.192139 312.470795 630.768433 318.611908 637.546265 C 328.733917 648.717712 340.69043 657.785522 352.934509 667.050659 z" stroke-linecap="round" />
</g>
		<g transform="matrix(1 0 0 1 15.76 -235.64)"  >
<path style="stroke: none; stroke-width: 1; stroke-dasharray: none; stroke-linecap: butt; stroke-dashoffset: 0; stroke-linejoin: miter; stroke-miterlimit: 4; fill: rgb(255,255,255); fill-rule: nonzero; opacity: 1;" vector-effect="non-scaling-stroke"  transform=" translate(-516.2, -227.86)" d="M 451.832214 219.860565 C 439.191742 222.515228 427.150757 225.776337 415.138611 229.157639 C 410.11261 230.572388 401.17923 227.075729 398.624542 222.662552 C 396.794556 219.501328 399.63269 218.945053 401.508423 218.23822 C 413.834534 213.593414 426.489288 210.049347 439.347382 207.218048 C 460.274384 202.610046 481.468872 201.302765 502.852692 201.637238 C 548.335815 202.348633 590.542542 214.475739 629.710266 237.443176 C 635.369385 240.761612 635.314697 241.129166 632.49231 247.263901 C 628.86322 255.152069 630.082397 256.133942 621.316406 250.825043 C 601.518311 238.834808 580.419373 230.189011 558.118469 223.952255 C 531.272827 216.444504 503.982483 215.269913 476.45639 216.509247 C 468.355408 216.873978 460.317261 218.634079 451.832214 219.860565 z" stroke-linecap="round" />
</g>
		<g transform="matrix(1 0 0 1 -22.1 130.28)"  >
<path style="stroke: none; stroke-width: 1; stroke-dasharray: none; stroke-linecap: butt; stroke-dashoffset: 0; stroke-linejoin: miter; stroke-miterlimit: 4; fill: rgb(255,255,255); fill-rule: nonzero; opacity: 1;" vector-effect="non-scaling-stroke"  transform=" translate(-478.34, -593.78)" d="M 506.254211 559.165405 C 504.088379 567.745117 505.34201 576.057434 505.007202 584.299683 C 504.1362 605.741028 501.653168 626.968994 496.522675 647.859253 C 494.729248 655.16156 493.385071 662.553467 486.820282 667.894104 C 483.79834 666.064087 482.807251 663.517395 483.617096 660.020325 C 486.125366 649.189087 488.936279 638.409058 490.923981 627.480774 C 493.489929 613.37323 494.162323 599.011414 495.585693 584.752502 C 495.699982 583.607605 495.593933 582.380188 493.6698 581.565979 C 488.790283 586.342285 483.215668 590.616272 476.967712 594.12384 C 468.067474 599.120361 457.321869 597.16748 451.418274 588.936157 C 448.90213 585.427979 449.510529 581.079102 449.41217 577.566284 C 448.954895 561.240417 452.414215 545.640503 462.19751 532.066772 C 465.598694 527.347839 469.342682 523.009155 475.171875 520.789795 C 480.41394 518.794006 485.075287 519.497375 489.322235 522.593506 C 496.63385 527.923828 501.232147 535.028564 502.013428 544.25946 C 502.216003 546.653259 502.710052 548.609314 504.993042 550.16571 C 508.184845 552.341675 507.515778 555.619812 506.254211 559.165405 M 467.061401 587.9151 C 478.952393 585.297668 487.106628 577.971924 492.757019 567.502686 C 493.69754 565.76001 494.139862 564.011292 494.286713 561.905457 C 494.745697 555.322754 491.553955 549.419739 491.333954 542.938599 C 491.228912 539.84436 489.514435 536.350769 487.50824 533.860229 C 481.474335 526.370117 476.751526 526.55481 470.382446 534.900818 C 460.226044 548.209839 457.639709 563.772827 459.093811 580.098633 C 459.463226 584.245728 461.232025 587.89978 467.061401 587.9151 z" stroke-linecap="round" />
</g>
		<g transform="matrix(1 0 0 1 38.05 110.35)"  >
<path style="stroke: none; stroke-width: 1; stroke-dasharray: none; stroke-linecap: butt; stroke-dashoffset: 0; stroke-linejoin: miter; stroke-miterlimit: 4; fill: rgb(255,255,255); fill-rule: nonzero; opacity: 1;" vector-effect="non-scaling-stroke"  transform=" translate(-538.49, -573.86)" d="M 538.740234 607.067993 C 537.911316 616.190979 538.075134 624.916809 539.501648 633.569336 C 539.811279 635.447632 539.253418 637.22113 539.541321 638.958191 C 540.36261 643.912781 542.372864 648.228088 547.338013 650.364807 C 549.199219 651.16571 550.742432 652.310791 552.18634 653.604309 C 550.254822 659.064453 547.004517 660.606323 541.798584 658.256836 C 535.287048 655.318176 531.092102 650.064331 529.892822 643.193665 C 528.224121 633.633667 526.958923 624.020691 527.865356 614.165527 C 530.843262 581.786804 536.116699 549.825073 544.231812 518.335632 C 544.474243 517.394836 544.992737 516.442932 544.237366 515.378784 C 542.132568 515.681152 541.532593 517.60614 540.529419 519.000366 C 535.180115 526.434631 529.9021 533.920227 524.59082 541.381897 C 523.087585 543.493713 521.126892 545.824463 518.516602 544.163208 C 515.570435 542.288208 517.048401 539.528442 518.617371 537.186707 C 528.345947 522.66626 538.06427 508.139038 547.793823 493.619354 C 548.256104 492.929596 548.667114 492.107391 549.3172 491.658905 C 551.876892 489.893066 554.600525 487.143066 557.793945 489.020966 C 560.651367 490.701294 560.4104 493.985748 559.658203 497.143372 C 555.033752 516.554138 550.192627 535.922546 546.080566 555.44342 C 542.522339 572.3349 539.396667 589.3479 538.740234 607.067993 z" stroke-linecap="round" />
</g>
		<g transform="matrix(1 0 0 1 180.29 -45.25)"  >
<path style="stroke: none; stroke-width: 1; stroke-dasharray: none; stroke-linecap: butt; stroke-dashoffset: 0; stroke-linejoin: miter; stroke-miterlimit: 4; fill: rgb(255,255,255); fill-rule: nonzero; opacity: 1;" vector-effect="non-scaling-stroke"  transform=" translate(-680.72, -418.25)" d="M 669.8078 401.907593 C 672.612305 396.004547 675.081177 390.355103 677.953003 384.918518 C 680.141602 380.775269 683.096619 377.13208 687.309631 374.765839 C 689.550598 373.507172 691.760559 373.330719 693.690674 375.350281 C 695.60675 377.355194 695.772766 379.968811 693.982727 381.681641 C 688.854675 386.588745 691.015808 390.695526 694.711304 394.965179 C 699.061401 399.991058 700.694702 406.212616 700.973511 412.534668 C 701.617493 427.141113 698.910278 441.030212 690.135193 453.197968 C 688.079773 456.048035 685.680359 458.574463 682.588745 460.363556 C 673.333679 465.719299 664.545349 461.451904 661.744751 451.098114 C 658.573181 439.373047 661.561157 428.368591 664.350891 417.296814 C 665.644409 412.163361 667.852173 407.260254 669.8078 401.907593 M 683.167847 401.020416 C 680.01178 408.862976 677.016479 416.782623 674.999023 424.987823 C 673.738464 430.11441 672.95813 435.41037 672.551147 440.675842 C 672.317444 443.700378 672.361145 447.922333 675.354309 449.116333 C 678.319275 450.299072 680.472412 446.797699 682.234436 444.483032 C 688.213562 436.628723 689.677429 427.247681 690.567322 417.821716 C 691.063354 412.567841 691.129028 407.160583 688.834778 402.163635 C 687.773254 399.851776 686.532898 397.160767 683.167847 401.020416 z" stroke-linecap="round" />
</g>
		<g transform="matrix(1 0 0 1 211.43 -124.38)"  >
<path style="stroke: none; stroke-width: 1; stroke-dasharray: none; stroke-linecap: butt; stroke-dashoffset: 0; stroke-linejoin: miter; stroke-miterlimit: 4; fill: rgb(255,255,255); fill-rule: nonzero; opacity: 1;" vector-effect="non-scaling-stroke"  transform=" translate(-711.87, -339.13)" d="M 695.215759 292.646637 C 706.470947 305.689392 715.802185 319.60025 724.428223 334.080872 C 732.051331 346.877777 737.050171 360.85257 743.663513 374.086151 C 745.335449 377.431824 745.267822 381.201385 746.475525 384.656464 C 747.099121 386.440521 746.187317 387.569122 744.443787 387.942688 C 742.592834 388.339294 741.511414 387.244568 741.229858 385.620483 C 740.891296 383.666534 740.895569 381.65213 740.767334 379.662903 C 740.257141 371.748993 736.509705 366.289276 728.810608 364.416351 C 723.087952 363.024231 720.286926 359.602417 717.843201 354.710419 C 707.911621 334.829102 695.943359 316.269196 680.93457 299.77652 C 680.486389 299.284058 679.996704 298.82309 679.596436 298.294373 C 678.51886 296.871277 676.598206 295.653687 677.171448 293.640961 C 677.892029 291.111023 680.399109 291.727875 682.276123 291.576996 C 686.53064 291.235107 690.991638 288.164062 695.215759 292.646637 z" stroke-linecap="round" />
</g>
		<g transform="matrix(1 0 0 1 244.78 -47.85)"  >
<path style="stroke: none; stroke-width: 1; stroke-dasharray: none; stroke-linecap: butt; stroke-dashoffset: 0; stroke-linejoin: miter; stroke-miterlimit: 4; fill: rgb(255,255,255); fill-rule: nonzero; opacity: 1;" vector-effect="non-scaling-stroke"  transform=" translate(-745.21, -415.66)" d="M 716.809326 392.253052 C 717.468506 388.533417 718.008423 385.250305 718.734863 382.009033 C 719.34906 379.26886 720.582947 376.649811 723.872437 376.903534 C 727.473633 377.181305 728.894653 379.918579 728.973267 383.222107 C 729.1203 389.400726 728.250977 395.498016 727.093872 401.553558 C 726.69928 403.618805 725.365295 406.076782 727.897888 407.384552 C 730.460876 408.708069 731.670105 406.145294 733.083801 404.614716 C 735.383789 402.124268 738.404602 401.035339 741.59198 400.980438 C 750.73999 400.822937 759.895447 400.838196 769.042236 401.041962 C 771.353271 401.093445 774.741028 400.989197 774.80249 404.399902 C 774.857422 407.443085 771.902222 408.185455 769.398315 408.572296 C 761.958679 409.721741 754.433533 409.399139 746.97467 409.150665 C 740.552124 408.936768 736.440796 411.82251 733.750244 417.063293 C 729.186279 425.953064 724.968018 434.951202 725.121216 445.378387 C 725.177795 449.22818 725.155396 454.748657 719.784058 454.417633 C 714.829285 454.112274 715.630005 448.721649 715.726379 445.097839 C 716.190857 427.636261 715.386047 410.148987 716.809326 392.253052 z" stroke-linecap="round" />
</g>
		<g transform="matrix(1 0 0 1 -196.24 -122.69)"  >
<path style="stroke: none; stroke-width: 1; stroke-dasharray: none; stroke-linecap: butt; stroke-dashoffset: 0; stroke-linejoin: miter; stroke-miterlimit: 4; fill: rgb(255,255,255); fill-rule: nonzero; opacity: 1;" vector-effect="non-scaling-stroke"  transform=" translate(-304.19, -340.81)" d="M 251.840912 401.038391 C 257.216217 379.084198 266.528839 359.316223 277.823547 340.295441 C 293.678619 313.594635 313.095062 289.878296 336.380554 269.436615 C 342.881378 263.729706 350.23642 258.713104 359.313904 256.471802 C 300.310974 298.142181 263.404175 353.881927 250.336975 425.149384 C 247.54538 416.978302 249.972412 409.230255 251.840912 401.038391 z" stroke-linecap="round" />
</g>
</g>
</g>
</svg>